<svg width="119" height="36" fill="none" xmlns="http://www.w3.org/2000/svg"><path fill-rule="evenodd" clip-rule="evenodd" d="M36.605 17.832v-.355l-2.626.023c-.73 1.715-1.808 3.516-3.244 5.425-2.313 3.082-5.325 6.186-8.344 9.205h6.55c.389 0 .7.31.7.699 0 .388-.311.698-.7.698H12.466a.696.696 0 0 1-.699-.698c0-.388.31-.699.699-.699h6.55c-3.019-3.019-6.03-6.116-8.343-9.197-.947-1.257-1.739-2.46-2.375-3.632H.699A.696.696 0 0 1 0 18.602c0-.388.31-.698.699-.698h6.9C6.681 15.894 6.231 14 6.231 12.19c0-4.183 3.4-7.582 7.583-7.582 3.47 0 5.324 1.637 6.884 4.37 1.289-2.251 2.771-3.757 5.185-4.223L27.017.52a.699.699 0 0 1 1.374.178V4.64c3.803.403 6.776 3.632 6.776 7.536 0 1.265-.226 2.561-.668 3.92h2.115c.005-.47.013-.85.023-1.144.107-2.73.971-4.853 2.592-6.368 1.643-1.536 3.915-2.304 6.816-2.304 1.9 0 3.552.33 4.96.992 1.408.64 2.496 1.526 3.264 2.656.768 1.11 1.174 2.368 1.216 3.776v.064c0 .17-.074.32-.224.448a.679.679 0 0 1-.448.16h-3.04c-.256 0-.448-.053-.576-.16-.128-.106-.234-.31-.32-.608-.34-1.344-.906-2.282-1.696-2.816-.789-.554-1.845-.832-3.168-.832-3.072 0-4.672 1.718-4.8 5.152a79.307 79.307 0 0 0-.032 2.656c0 1.195.011 2.102.032 2.72.128 3.435 1.728 5.152 4.8 5.152 1.323 0 2.38-.277 3.168-.832.811-.554 1.376-1.493 1.696-2.816.064-.298.16-.501.288-.608.15-.106.352-.16.608-.16h3.04c.192 0 .352.064.48.192.15.128.214.288.192.48-.042 1.408-.448 2.678-1.216 3.808-.768 1.11-1.856 1.995-3.264 2.656-1.408.64-3.06.96-4.96.96-2.944 0-5.226-.757-6.848-2.272-1.6-1.514-2.453-3.648-2.56-6.4a86.162 86.162 0 0 1-.032-2.816Zm-2.835-5.656c0 1.296-.264 2.6-.746 3.92h-4.633V6.045c3.027.403 5.379 2.995 5.379 6.131Zm-26.148 0c0-3.407 2.778-6.186 6.185-6.186 2.895 0 4.479 1.203 6.264 4.773a.703.703 0 0 0 .628.389.686.686 0 0 0 .621-.389c1.296-2.592 2.484-3.935 4.145-4.478l-3.547 13.218-2.197-3.796a.698.698 0 0 0-1.21 0l-1.63 2.818-2.313-4.005a.697.697 0 0 0-1.21 0l-1.941 3.36H9.135c-.947-1.916-1.513-3.818-1.513-5.704Zm13.077 19.652c-4.144-4.145-8.304-8.367-10.788-12.55h1.917a.697.697 0 0 0 .606-.35l1.544-2.67 2.313 4.005a.697.697 0 0 0 1.21 0l1.63-2.817 2.43 4.207c.124.217.357.349.605.349.031 0 .062 0 .093-.008a.699.699 0 0 0 .582-.512l4.153-15.484h.008v10.78c0 .389.31.699.698.699h4.75c-2.259 4.78-7.016 9.616-11.75 14.35ZM57.654 29a.725.725 0 0 1-.48-.192.651.651 0 0 1-.192-.48l.064-.288L64.758 7.4c.15-.533.523-.8 1.12-.8h3.488c.555 0 .928.267 1.12.8l7.712 20.64c.022.064.032.16.032.288a.651.651 0 0 1-.192.48.614.614 0 0 1-.448.192h-2.784c-.277 0-.49-.064-.64-.192a.87.87 0 0 1-.288-.416l-1.504-3.904H62.87l-1.504 3.904c-.17.406-.48.608-.928.608h-2.784Zm13.6-8.192-3.648-9.888-3.616 9.888h7.264Zm10.188 7.968c.15.15.33.224.544.224h2.912c.235 0 .416-.074.544-.224a.74.74 0 0 0 .224-.544v-7.68h4.448l4.128 7.584c.15.278.31.49.48.64.192.15.459.224.8.224h2.912c.17 0 .32-.064.448-.192a.606.606 0 0 0 .224-.48.796.796 0 0 0-.096-.352l-4.672-8.16c1.344-.47 2.39-1.226 3.136-2.272.768-1.066 1.152-2.378 1.152-3.936 0-2.24-.747-3.968-2.24-5.184-1.472-1.216-3.51-1.824-6.112-1.824h-8.288a.78.78 0 0 0-.576.224.854.854 0 0 0-.192.576v20.832a.74.74 0 0 0 .224.544Zm11.616-12.704c-.64.576-1.6.864-2.88.864h-4.512v-6.784h4.512c1.28 0 2.24.299 2.88.896.661.598.992 1.44.992 2.528s-.33 1.92-.992 2.496ZM103.517 29a.74.74 0 0 1-.544-.224.742.742 0 0 1-.224-.544V7.4c0-.234.064-.426.192-.576a.779.779 0 0 1 .576-.224h14.08c.235 0 .427.075.576.224.149.15.224.342.224.576v2.112a.781.781 0 0 1-.224.576.853.853 0 0 1-.576.192h-10.528v5.664h9.824c.235 0 .427.075.576.224.149.128.224.31.224.544v1.984a.781.781 0 0 1-.224.576.853.853 0 0 1-.576.192h-9.824v5.856h10.784c.235 0 .427.075.576.224a.78.78 0 0 1 .224.576v2.112a.781.781 0 0 1-.224.576.853.853 0 0 1-.576.192h-14.336Zm-86.396 5.576h7.149c.387 0 .698.31.698.698 0 .388-.31.699-.698.699H17.12a.696.696 0 0 1-.698-.699c0-.388.31-.698.698-.698Z" fill="#1370FB"/></svg>