<svg width="119" height="36" viewBox="0 0 119 36" fill="none" xmlns="http://www.w3.org/2000/svg">
<path fill-rule="evenodd" clip-rule="evenodd" d="M36.6054 17.8323L36.6057 17.4775L33.979 17.5003C33.2495 19.2155 32.1706 21.0161 30.7348 22.9254C28.4219 26.0067 25.4105 29.1112 22.3914 32.1303H28.9419C29.33 32.1303 29.6404 32.4408 29.6404 32.8288C29.6404 33.2169 29.33 33.5274 28.9419 33.5274H12.4647C12.0766 33.5274 11.7661 33.2169 11.7661 32.8288C11.7661 32.4408 12.0766 32.1303 12.4647 32.1303H19.0152C15.9961 29.1112 12.9847 26.0144 10.6718 22.9332C9.72492 21.6758 8.93327 20.4728 8.29684 19.3009H0.698518C0.310452 19.3009 0 18.9904 0 18.6024C0 18.2143 0.310452 17.9038 0.698518 17.9038H7.59832C6.68249 15.8937 6.23233 13.9999 6.23233 12.1915C6.23233 8.00817 9.63179 4.60872 13.8151 4.60872C17.2844 4.60872 19.1394 6.24636 20.6994 8.97834C21.9878 6.72756 23.4702 5.22186 25.884 4.75618L27.0171 0.518509C27.1103 0.177012 27.4362 -0.040305 27.7855 0.00626289C28.1348 0.0528308 28.3909 0.347761 28.3909 0.69702V4.63976C32.1939 5.04335 35.1665 8.27206 35.1665 12.176C35.1665 13.4411 34.9414 14.7372 34.499 16.0955H36.6137C36.619 15.6268 36.6269 15.2458 36.6374 14.9523C36.7441 12.2216 37.6081 10.0989 39.2294 8.58427C40.8721 7.04827 43.1441 6.28027 46.0454 6.28027C47.9441 6.28027 49.5974 6.61094 51.0054 7.27227C52.4134 7.91227 53.5014 8.79761 54.2694 9.92827C55.0374 11.0376 55.4427 12.2963 55.4854 13.7043V13.7683C55.4854 13.9389 55.4107 14.0883 55.2614 14.2163C55.1334 14.3229 54.9841 14.3763 54.8134 14.3763H51.7734C51.5174 14.3763 51.3254 14.3229 51.1974 14.2163C51.0694 14.1096 50.9627 13.9069 50.8774 13.6083C50.5361 12.2643 49.9707 11.3256 49.1814 10.7923C48.3921 10.2376 47.3361 9.96027 46.0134 9.96027C42.9414 9.96027 41.3414 11.6776 41.2134 15.1123C41.1921 15.6883 41.1814 16.5736 41.1814 17.7683C41.1814 18.9629 41.1921 19.8696 41.2134 20.4883C41.3414 23.9229 42.9414 25.6403 46.0134 25.6403C47.3361 25.6403 48.3921 25.3629 49.1814 24.8083C49.9921 24.2536 50.5574 23.3149 50.8774 21.9923C50.9414 21.6936 51.0374 21.4909 51.1654 21.3843C51.3147 21.2776 51.5174 21.2243 51.7734 21.2243H54.8134C55.0054 21.2243 55.1654 21.2883 55.2934 21.4163C55.4427 21.5443 55.5067 21.7043 55.4854 21.8963C55.4427 23.3043 55.0374 24.5736 54.2694 25.7043C53.5014 26.8136 52.4134 27.6989 51.0054 28.3603C49.5974 29.0003 47.9441 29.3203 46.0454 29.3203C43.1014 29.3203 40.8187 28.5629 39.1974 27.0483C37.5974 25.5336 36.7441 23.4003 36.6374 20.6483C36.6161 20.0723 36.6054 19.1336 36.6054 17.8323ZM33.7695 12.176C33.7695 13.4721 33.5056 14.776 33.0244 16.0955H28.3909V6.04456C31.4178 6.44815 33.7695 9.04043 33.7695 12.176ZM7.62161 12.176C7.62161 8.76878 10.4002 5.99023 13.8074 5.99023C16.7023 5.99023 18.2856 7.19324 20.0707 10.7634C20.1872 10.9963 20.4278 11.1515 20.6994 11.1515C20.9633 11.1515 21.2039 11.004 21.3203 10.7634C22.6165 8.17116 23.8039 6.82845 25.4649 6.28516L21.9179 19.5027L19.7215 15.7074C19.5973 15.4901 19.3645 15.3581 19.1161 15.3581C18.8677 15.3581 18.6349 15.4901 18.5107 15.7074L16.8808 18.5247L14.568 14.5199C14.4438 14.3026 14.211 14.1707 13.9626 14.1707C13.7142 14.1707 13.4814 14.3026 13.3572 14.5199L11.4169 17.8806H9.13506C8.18818 15.9635 7.62161 14.062 7.62161 12.176ZM20.6994 31.8276C16.5549 27.6831 12.3948 23.4609 9.91119 19.2776H11.8282C12.0766 19.2776 12.3094 19.1457 12.4336 18.9283L13.9781 16.2584L16.291 20.2633C16.4152 20.4806 16.648 20.6125 16.8964 20.6125C17.1447 20.6125 17.3776 20.4806 17.5018 20.2633L19.1316 17.4459L21.5609 21.6526C21.6851 21.8699 21.9179 22.0018 22.1663 22.0018C22.1973 22.0018 22.2284 22.0018 22.2594 21.9941C22.5388 21.9552 22.7717 21.7535 22.8415 21.4818L26.9938 5.99799H27.0016V16.7785C27.0016 17.1665 27.3121 17.477 27.7001 17.477H32.45C30.1915 22.2579 25.4338 27.0932 20.6994 31.8276ZM57.6544 29.0003C57.4837 29.0003 57.3237 28.9363 57.1744 28.8083C57.0464 28.6803 56.9824 28.5203 56.9824 28.3283L57.0464 28.0403L64.7584 7.40027C64.9077 6.86694 65.2811 6.60027 65.8784 6.60027H69.3664C69.9211 6.60027 70.2944 6.86694 70.4864 7.40027L78.1984 28.0403C78.2197 28.1043 78.2304 28.2003 78.2304 28.3283C78.2304 28.5203 78.1664 28.6803 78.0384 28.8083C77.9104 28.9363 77.7611 29.0003 77.5904 29.0003H74.8064C74.5291 29.0003 74.3157 28.9363 74.1664 28.8083C74.0171 28.6803 73.9211 28.5416 73.8784 28.3923L72.3744 24.4883H62.8704L61.3664 28.3923C61.1957 28.7976 60.8864 29.0003 60.4384 29.0003H57.6544ZM71.2544 20.8083L67.6064 10.9203L63.9904 20.8083H71.2544ZM81.4419 28.7763C81.5912 28.9256 81.7726 29.0003 81.9859 29.0003H84.8979C85.1326 29.0003 85.3139 28.9256 85.4419 28.7763C85.5912 28.6269 85.6659 28.4456 85.6659 28.2323V20.5523H90.1139L94.2419 28.1363C94.3912 28.4136 94.5512 28.6269 94.7219 28.7763C94.9139 28.9256 95.1806 29.0003 95.5219 29.0003H98.4339C98.6046 29.0003 98.7539 28.9363 98.8819 28.8083C99.0312 28.6803 99.1059 28.5203 99.1059 28.3283C99.1059 28.2216 99.0739 28.1043 99.0099 27.9763L94.3379 19.8163C95.6819 19.3469 96.7272 18.5896 97.4739 17.5443C98.2419 16.4776 98.6259 15.1656 98.6259 13.6083C98.6259 11.3683 97.8792 9.64027 96.3859 8.42427C94.9139 7.20827 92.8766 6.60027 90.2739 6.60027H81.9859C81.7512 6.60027 81.5592 6.67494 81.4099 6.82427C81.2819 6.97361 81.2179 7.16561 81.2179 7.40027V28.2323C81.2179 28.4456 81.2926 28.6269 81.4419 28.7763ZM93.0579 16.0723C92.4179 16.6483 91.4579 16.9363 90.1779 16.9363H85.6659V10.1523H90.1779C91.4579 10.1523 92.4179 10.4509 93.0579 11.0483C93.7192 11.6456 94.0499 12.4883 94.0499 13.5763C94.0499 14.6643 93.7192 15.4963 93.0579 16.0723ZM103.517 29.0003C103.304 29.0003 103.122 28.9256 102.973 28.7763C102.824 28.6269 102.749 28.4456 102.749 28.2323V7.40027C102.749 7.16561 102.813 6.97361 102.941 6.82427C103.09 6.67494 103.282 6.60027 103.517 6.60027H117.597C117.832 6.60027 118.024 6.67494 118.173 6.82427C118.322 6.97361 118.397 7.16561 118.397 7.40027V9.51227C118.397 9.74694 118.322 9.93894 118.173 10.0883C118.024 10.2163 117.832 10.2803 117.597 10.2803H107.069V15.9443H116.893C117.128 15.9443 117.32 16.0189 117.469 16.1683C117.618 16.2963 117.693 16.4776 117.693 16.7123V18.6963C117.693 18.9309 117.618 19.1229 117.469 19.2723C117.32 19.4003 117.128 19.4643 116.893 19.4643H107.069V25.3203H117.853C118.088 25.3203 118.28 25.3949 118.429 25.5443C118.578 25.6936 118.653 25.8856 118.653 26.1203V28.2323C118.653 28.4669 118.578 28.6589 118.429 28.8083C118.28 28.9363 118.088 29.0003 117.853 29.0003H103.517ZM17.1213 34.5757H24.2695C24.6575 34.5757 24.968 34.8861 24.968 35.2742C24.968 35.6623 24.6575 35.9727 24.2695 35.9727H17.1213C16.7332 35.9727 16.4228 35.6623 16.4228 35.2742C16.4228 34.8861 16.7332 34.5757 17.1213 34.5757Z" fill="#1370FB"/>
</svg>
